<svg xmlns="http://www.w3.org/2000/svg" viewBox="0 0 667.42 378.1"> 
  <defs>
    <style>
      .cls-2{fill:#324bb8}.shadow{filter: drop-shadow(5px 5px 3px rgb(0 0 0/0.4))}.cls-14,.cls-3{fill:#fff}.cls-13,.cls-4{fill:#3a2b63}.cls-4{opacity:.4;mix-blend-mode:multiply}.cls-8{fill:#74b9ff}.cls-9{fill:#76d0d4}.cls-10{fill:#1facaf}.cls-11{fill:#292253}.cls-12{fill:#ffc5a4}.cls-14{opacity:.7;mix-blend-mode:soft-light}
    </style>
  </defs>
  <g style="isolation:isolate">
    <g id="Layer_2" data-name="Layer 2">
      <g id="OBJECTS">
        <path d="M312.09 115.46c-2.46 3.48-2.65 8.67 2.61 9.88 3.85.88 7.17-1.94 8-5.63 1.39-6.35-5.76-9.62-9.85-5.16a9.19 9.19 0 0 0-.76.91ZM262 287.37c2.63-30.67-50.29.79-19.59 11.73 8.98 3.2 18.75-1.95 19.59-11.73ZM334 81.61c-6.12 7.38-10.86 14.89-7.27 24.89 2.33 6.51 8.72 11.63 14.88 14.5 11.94 5.57 18.36-5.62 21.29-15.71s-1-17.28-9.76-23c-5.41-3.43-13.46-5.61-19.14-.68Z" class="cls-2"/>
        <path d="M667.42 141.3v236.8H151.87c4.08-19.34 20.18-59.83 83.53-66.87 83.8-9.31 9.95-47.22 28.78-95.14 15.91-40.49 56.27-32.36 97.09-81.12C408.39 78.68 512-3.92 667.42 141.3Z" class="cls-2"/>
        <path d="M0 0v378.1h151.87c4.08-19.34 20.18-59.83 83.53-66.87 61.19-6.8 38.32-28.85 28.86-58.91H230.2a7.55 7.55 0 0 1-7.47-6.4 7.33 7.33 0 0 1-.09-1.15 7.55 7.55 0 0 1 7.56-7.55h30.94a46.6 46.6 0 0 1 3-21.13 60.18 60.18 0 0 1 5.75-11.09h-24.22a6.93 6.93 0 0 1-6.93-6.92V152a6.93 6.93 0 0 1 6.93-6.93h73.07a6.93 6.93 0 0 1 6.93 6.93v14.16a149.12 149.12 0 0 0 35.6-31.16C408.39 78.68 512-3.92 667.42 141.3V0Zm262 287.37c-.85 9.78-10.62 14.93-19.59 11.73-30.69-10.94 22.23-42.4 19.59-11.73Zm-16.65-67.79h14.18v17.64h-21.4v-17.64Zm77.32-99.87c-.81 3.69-4.13 6.51-8 5.63-5.26-1.21-5.07-6.4-2.61-9.88a9.19 9.19 0 0 1 .74-.91c4.12-4.46 11.27-1.19 9.88 5.16Zm40.2-14.42c-2.93 10.09-9.35 21.28-21.29 15.71-6.16-2.87-12.55-8-14.88-14.5-3.59-10 1.14-17.51 7.27-24.89 5.7-4.93 13.75-2.75 19.14.73 8.81 5.66 12.72 12.77 9.77 22.95Z" class="cls-3 shadow"/>
        <path d="M643.34 337c0 2.27-75.94 4.11-169.62 4.11S304.1 339.27 304.1 337s75.94-4.11 169.62-4.11 169.62 1.84 169.62 4.11Z" class="cls-4"/>
        <path fill="#e6ecf2" d="M551.6 233.69c-5 10.81-7.72 22.55-9.94 33.1-3.89 18.45-6.35 33.28-17.52 33.28-17.11 0-20.43-54.58-37.77-54.58s-22.6 54.58-40.08 54.58c-9.8 0-12.19-10.73-15.63-25.71-2.69-11.72-6-26-14.1-39.86-18.36-31.47-27.1-83.05 3.5-97.92s48.68 18.93 66.31 18.93 28.84-29 62.06-19.06 16.02 69.65 3.17 97.24Z"/>
        <circle cx="537.54" cy="168.58" r="20.12" class="cls-3"/>
        <ellipse cx="422.64" cy="154.97" class="cls-3" rx="16.64" ry="9.35" transform="rotate(-50.68 422.66233 154.9625)"/>
        <path fill="#766c93" d="M541.66 266.79c-3.89 18.45-6.35 33.28-17.52 33.28-17.11 0-20.43-54.58-37.77-54.58s-22.6 54.58-40.08 54.58c-9.8 0-12.19-10.73-15.63-25.71 5.09 1.49 11.64 2.43 18.09.67 13.52-3.68 12.7-45.86 37.27-45.86s20.47 38.07 32.35 43.2c8.29 3.57 18.12-1.93 23.29-5.58Z" opacity=".2" style="mix-blend-mode:multiply"/>
        <path d="m384.8 327.77-9.99.86-7.02-43.42-2.38-14.76-1-6.18-.54-3.37 20.44-2.36.16 22.72.33 46.51z" class="cls-3"/>
        <path d="m367.86 265.04-2.45 5.41-6.33 13.94-19.34 42.67-9.69-3.61 13.34-44.59 5.41-18.05 15.61 3.46 3.45.77z" class="cls-3"/>
        <path fill="#dae3ec" d="M384.47 281.26a37.7 37.7 0 0 1-16.68 3.95l-2.38-14.76-6.33 13.94a58.64 58.64 0 0 1-15.68-5.53l5.4-18.05 15.61 3.46-.54-3.37 20.44-2.36Z"/>
        <path d="m382.77 198.65 11.7 20.65 24.96 4.59-7.02 6.74L382 226.9l.77-28.25z" class="cls-8"/>
        <path d="m382.77 198.65 11.7 20.65 24.96 4.59-7.02 6.74L382 226.9l.77-28.25z" class="cls-4"/>
        <path d="M386.27 270.62s-6 8.45-20.55 7.85-25.36-8.45-24.15-12.09c.27-.83 1.22-4.73 2.51-10.23 4.27-18.23 12.29-54 12.29-54 4.87-22.06 27.48-18.51 28.69-1 .47 6.82.76 18.89.93 31.07.07 4.62.12 9.24.16 13.6.08 10 .11 18.54.11 22.49.01 1.48.01 2.31.01 2.31Z" class="cls-8"/>
        <path d="M386.15 245.82c-6.32-1.38-19.18-4.54-20.76-7.71-2.11-4.21-1.52-36.16-1.52-36.16l7.58 23.79 14.55 6.48c.06 4.62.11 9.24.15 13.6Z" class="cls-4"/>
        <path d="M436.29 192.71s-6.53-8.57 3.16-13.19 16-8.14 12.32-14.48c6.87 3.88 10.57 11.63 4.23 17.08" class="cls-9"/>
        <path d="M438.39 191.81s-3.52-5.95 1.23-9.22 18.14-7.16 12.15-17.55c7.08 8 7.4 12.14-1.58 20" class="cls-10"/>
        <path d="m464.98 189.04-22.19 14.5-5.96-8.25-2.14-2.95 24.66-15.99.98 2.19 4.65 10.5z" class="cls-8"/>
        <path d="m370.52 249.77 94.22-62.6 2.68 4.46-90.06 67.78a5.92 5.92 0 0 1-8.13-.91 5.92 5.92 0 0 1 1.29-8.73Z" class="cls-11"/>
        <path d="M406.94 227.51s10.72.7 11.4 1.06c1 .54-.18 2-.18 2s1.4 1.76-1.18 3.1c1.07 1.5-.64 2.58-3.9 2.58a40.59 40.59 0 0 1-7-.78Z" class="cls-12"/>
        <path d="M362.49 200s4.74 28.26 6.59 31.68 32.52 4.6 37 3.81a16.27 16.27 0 0 0 .86-8l-25-6.64-.24-25" class="cls-8"/>
        <path d="m369.38 186.15 2.08-6.74-2.21-10.41 17-9.85s6 11.74 3.16 18.48-8.29 6.19-8.29 6.19l-1.27 9.65Z" class="cls-12"/>
        <path d="M370.58 182.24s-8.53-7-8.53-15.69 8.74-16.27 16.57-15.36c7.65-5.42 19.16 3.74 9.58 12.56-3.85.61-9.79-.41-9.79-.41s1.93 5.92-.44 8.93c-1.46-3.91-4.3-5.71-5.37-3.61-2.68 5.23 3 6.81 3 6.81Z" class="cls-11"/>
        <path d="m367.86 187.22 1.39-3.75 8.31 3.75 2.31 6.29.78-5.95 2.12 1.97-1.58 5.09M372.59 325.81l1.71 10.55h21.66l-10.28-6.39.59-6.4-6.55 3.48-7.13-1.24zM330.91 316.03l-3.47 10.11 19.1 10.21-6.05-10.48 3.54-5.37-7.42-.01-5.7-4.46z" class="cls-8"/>
        <path d="m460.33 178.54-23.5 16.75-2.14-2.95 24.66-15.99.98 2.19z" class="cls-4"/>
        <path d="M381.77 199c0 .91-.52 1.65-1.15 1.65s-1.15-.74-1.15-1.65.52-1.65 1.15-1.65 1.15.75 1.15 1.65Z" class="cls-3"/>
        <path d="M421.92 228.2c2-.72 4.78-4.76 5.19-6.21s-3.46-3.09-4.08-2.36.88 2.07.88 2.07-2.46-1.75-3-.8 1.42 3 1.42 3-2.27-1.68-3-.69 1.67 2.49 1.67 2.49-2.09-.46-2.75.13 1.69 3.08 3.67 2.37Z" class="cls-12"/>
        <path d="M386.27 270.62s-6 8.45-20.55 7.85-25.36-8.45-24.15-12.09c.27-.83 1.22-4.73 2.51-10.23 4.48 8.22 15.85 20.44 42.18 12.16.01 1.48.01 2.31.01 2.31Z" class="cls-4"/>
        <path d="M454.52 150.2s26.88 20 55.29 4.74c-21.52 23.47-48.59 6.23-55.29-4.74ZM602.2 275.27l-.03.81-.27 9.16-.2 6.8-1.16 37.93-11.12 2.94-5.14-42.93-1.77-14.71h19.69z" class="cls-11"/>
        <path d="m622.86 329.12-11.43 1.03-8.08-38.08-1.45-6.83-1.9-8.97 2.17-.19 17.44-1.58.9 15.17 2.35 39.45z" class="cls-11"/>
        <path d="M620.51 289.67a54.41 54.41 0 0 1-17.16 2.4l-1.45-6.84-.2 6.81a99.35 99.35 0 0 1-17.42-2.04l-1.77-14.71h19.69v.81l17.44-1.57Z" class="cls-4"/>
        <path d="M564 137.77c-15.76 0-28.52 13-28.52 29.11S548.19 196 564 196s28.53-13 28.53-29.1-12.82-29.13-28.53-29.13Zm0 51.55a22.45 22.45 0 1 1 22-22.44 22.23 22.23 0 0 1-22 22.44Z" class="cls-13"/>
        <path d="M586 166.88a22.22 22.22 0 0 1-21.67 22.43H564a19.76 19.76 0 0 1-3-.21 21.4 21.4 0 0 1-6.36-1.9 21.15 21.15 0 0 1-4.09-2.57 22.48 22.48 0 0 1-8.58-17.76 22.24 22.24 0 0 1 22-22.45 19.28 19.28 0 0 1 3 .21 19.94 19.94 0 0 1 4.43 1.09 21.21 21.21 0 0 1 4.56 2.3l.14.1a22 22 0 0 1 6.69 7.06 22.56 22.56 0 0 1 3.21 11.7Z" class="cls-14"/>
        <path d="M622.33 279.52s-24.73 7.77-43.6 0a343.54 343.54 0 0 1 1.32-44.62q.86-8.22 2.09-15.21c3.51-19.86 9.22-32.25 15.46-36.58 28.89-20.11 24.73 96.41 24.73 96.41Z" class="cls-8"/>
        <path d="M592.36 214.64c-1.49 9.85-7.58 16.48-12.31 20.26q.86-8.22 2.09-15.21c2.78-1.55 6.16-3.26 10.22-5.05Z" class="cls-4"/>
        <path d="m543.62 204.19-1.93-1.35a21 21 0 0 0-.13-3.76c-.24-.48-1.09-1.05-1.33-.3-.09.3-.47 2.45-.47 2.45s-3-5.39-3.19-5.63-1.48.16-1.23.65S537 200 537 200s-2.15-2.55-2.89-3.21c-.3-.28-1.12.44-.91 1a35.33 35.33 0 0 0 2.44 3.7 26.36 26.36 0 0 0-3-2.13c-.4-.08-1 .91-.55 1.47a29.53 29.53 0 0 0 2.87 2.4s-2.19-.52-2.92-.66c-.51-.1-1.1.84-.05 1.41s4.66 3.39 4.66 3.39l3.2 2.85" class="cls-12"/>
        <path d="M588.74 195.84 569 216.44l-25.78-12.9-4.14 7s25 19.57 29.94 22.4 26-16.49 26-16.49" class="cls-8"/>
        <path d="M588.53 160.16s-11 13.05.53 24.39" class="cls-12"/>
        <path d="M590.5 156.05c-7 4.14-11.74 8.23-4 18.3 5.23 6.78-2.9 18.11.87 26.19s14.38 2.61 19.76 5.4 15 2.71 14.72-8.11-9.15-18.42-9.4-26.33-5.78-24.95-21.95-15.45ZM601.51 327.49v8.86h-21.45l8-6.38s8.07 2.03 13.45-2.48ZM624.1 324.85l1.13 8.79-21.23 2.73 7.09-7.35s8.25.98 13.01-4.17Z" class="cls-3"/>
        <path d="m571.35 145.73-16.74 41.48a21.15 21.15 0 0 1-4.09-2.57c5.19-12.62 11.64-28.32 16.4-40a19.94 19.94 0 0 1 4.43 1.09ZM582.74 155.19l-18.44 34.12h-.3a19.76 19.76 0 0 1-3-.21l14.91-41.1.14.1a22 22 0 0 1 6.69 7.06Z" class="cls-14"/>
        <path d="m413.17 259.03-.42-.87 37.62-18.14h69.03l36.7 18.14-.43.87-36.5-18.04h-68.58l-37.42 18.04z" class="cls-3"/>
        <path d="M454.52 240.51a4.68 4.68 0 1 1-4.68-4.69 4.69 4.69 0 0 1 4.68 4.69Z" class="cls-3"/>
        <path d="M449.2 237.47h1.28v6.08h-1.28z" class="cls-11"/>
        <path d="M452.88 239.87v1.28h-6.08v-1.28z" class="cls-11"/>
        <path d="M524 240.51a4.69 4.69 0 1 1-4.68-4.69 4.69 4.69 0 0 1 4.68 4.69Z" class="cls-3"/>
        <path d="M518.65 237.47h1.28v6.08h-1.28z" class="cls-11"/>
        <path d="M522.33 239.87v1.28h-6.08v-1.28z" class="cls-11"/>
        <path d="m412.49631 258.74814.91414-.32443 17.70657 49.8911-.91414.32443zM537.0401 308.26434l18.37002-49.8745.91022.33526-18.37001 49.8745z" class="cls-3"/>
        <path d="M417.64 258.59a4.69 4.69 0 1 1-4.68-4.68 4.69 4.69 0 0 1 4.68 4.68Z" class="cls-3"/>
        <path d="M412.31 255.55h1.28v6.08h-1.28z" class="cls-11"/>
        <path d="M416 257.95v1.28h-6.08v-1.28z" class="cls-11"/>
        <path d="M560.56 258.59a4.68 4.68 0 1 1-4.68-4.68 4.68 4.68 0 0 1 4.68 4.68Z" class="cls-3"/>
        <path d="M555.24 255.55h1.28v6.08h-1.28z" class="cls-11"/>
        <path d="M558.92 257.95v1.28h-6.08v-1.28z" class="cls-11"/>
        <path d="M433.29 321.02h103.17v15.34H433.29z" class="cls-10"/>
        <path d="M433.29 321.02h103.17v7.67H433.29z" class="cls-4"/>
        <path d="M421.24 307.56h127.27a7.9 7.9 0 0 1 7.9 7.9v7.44H413.34v-7.44a7.9 7.9 0 0 1 7.9-7.9Z" class="cls-10"/>
        <path d="M556.41 315.23H413.34a7.68 7.68 0 0 1 7.67-7.67h127.73a7.68 7.68 0 0 1 7.67 7.67Z" class="cls-9"/>
        <path d="m555.29 133.69-8.32-26.92-45.24-5.16.68-5.96 49.14 5.61 9.48 30.66-5.74 1.77z" class="cls-3"/>
        <path d="m553.03 142.86-3.77-11.91 14.69-3.4 3.11 12.84" class="cls-13"/>
        <path d="M563 135.2a2 2 0 1 0-2 2 2 2 0 0 0 2-2Z" class="cls-9"/>
        <circle cx="549.26" cy="104.02" r="7.87" class="cls-13" transform="rotate(-45 549.25668 104.02044)"/>
        <path d="M554 104a4.74 4.74 0 1 0-4.74 4.74A4.75 4.75 0 0 0 554 104ZM518.8 93.62v12.52a5.75 5.75 0 0 1-5.76 5.75h-48.67a5.74 5.74 0 0 1-5.74-5.75V93.62a5.74 5.74 0 0 1 5.74-5.75H513a5.75 5.75 0 0 1 5.8 5.75Z" class="cls-9"/>
        <path d="M473.43 87.87v24h-9.06a5.74 5.74 0 0 1-5.74-5.75v-12.5a5.74 5.74 0 0 1 5.74-5.75ZM479.1 87.87h4.68v24.02h-4.68z" class="cls-4"/>
        <path d="M494.27 93.17a1.92 1.92 0 1 1-1.91-1.91 1.92 1.92 0 0 1 1.91 1.91ZM504 93.17a1.92 1.92 0 1 1-1.91-1.91 1.92 1.92 0 0 1 1.91 1.91ZM513.69 93.17a1.92 1.92 0 1 1-1.91-1.91 1.92 1.92 0 0 1 1.91 1.91Z" class="cls-3"/>
        <path d="M334 244.77a8.77 8.77 0 0 1-.09 1.15 7.65 7.65 0 0 1-2.12 4.2 7.55 7.55 0 0 1-5.35 2.2H230.2a7.55 7.55 0 0 1-7.47-6.4 7.33 7.33 0 0 1-.09-1.15 7.55 7.55 0 0 1 7.56-7.55h96.23a7.55 7.55 0 0 1 7.57 7.55Z" class="cls-13"/>
        <path d="M238.13 219.58h21.41v17.64h-21.41zM275.28 203.42h13.85v33.8h-13.85zM298.89 232.28h16.37v4.94h-16.37z" class="cls-10"/>
        <path d="M311.49 232.83h-8.82l-3.78-14.55h16.38l-3.78 14.55z" class="cls-3"/>
        <rect width="18.91" height="3.96" x="297.73" y="215.62" class="cls-3" rx="1.76" ry="1.76"/>
        <path d="M333.9 245.92a7.65 7.65 0 0 1-2.12 4.2 7.55 7.55 0 0 1-5.35 2.2H230.2a7.55 7.55 0 0 1-7.47-6.4ZM238.13 219.58h7.23v17.64h-7.23z" class="cls-4"/>
        <path d="M284 213.19a1.83 1.83 0 1 0-1.82 1.83 1.82 1.82 0 0 0 1.82-1.83Z" class="cls-3"/>
        <circle cx="282.21" cy="222.78" r="1.83" class="cls-3"/>
        <rect width="86.93" height="59.93" x="238.74" y="145.02" class="cls-11" rx="6.93" ry="6.93"/>
        <rect width="76.32" height="50.22" x="244.05" y="149.88" class="cls-9" rx="3.63" ry="3.63"/>
        <rect width="24.11" height="2.92" x="248.84" y="154.97" class="cls-3" rx="1.3" ry="1.3"/>
        <rect width="24.11" height="2.92" x="248.84" y="161.05" class="cls-3" rx="1.3" ry="1.3"/>
        <rect width="24.11" height="2.92" x="248.84" y="167.12" class="cls-3" rx="1.3" ry="1.3"/>
        <rect width="19.61" height="2.92" x="248.84" y="173.19" class="cls-3" rx="1.3" ry="1.3"/>
        <rect width="10.5" height="12.17" x="277.02" y="154.97" class="cls-3" rx="1.5" ry="1.5"/>
        <rect width="10.5" height="12.17" x="290.4" y="154.97" class="cls-3" rx="1.5" ry="1.5"/>
        <rect width="10.5" height="12.17" x="303.77" y="154.97" class="cls-3" rx="1.5" ry="1.5"/>
        <path d="M304.22 186.41a19.55 19.55 0 0 0-1.22 4.19c-.5 2.33-.81 4.21-2.22 4.21-2.16 0-2.58-6.91-4.78-6.91s-2.86 6.91-5.07 6.91c-1.24 0-1.54-1.36-2-3.26a17.35 17.35 0 0 0-1.79-5c-2.32-4-3.42-10.5.44-12.38s6.16 2.39 8.39 2.39 3.65-3.66 7.85-2.41 2.03 8.77.4 12.26Z" class="cls-3"/>
        <path d="M298.29 182.48a2.65 2.65 0 1 1-2.64-2.65 2.65 2.65 0 0 1 2.64 2.65Z" class="cls-8"/>
        <path d="M295.28 180.76h.73v3.44h-.73z" class="cls-11"/>
        <path d="M297.37 182.12v.73h-3.44v-.73z" class="cls-11"/>
        <path d="M283.53 191.93h-16.15v-1h15.63l5.03-7.02.81.58-5.32 7.44zM315.6 179.83a2.57 2.57 0 1 0-2.57 2.58 2.57 2.57 0 0 0 2.57-2.58Z" class="cls-3"/>
        <path d="M270 191.43a2.58 2.58 0 1 0-2.58 2.58 2.58 2.58 0 0 0 2.58-2.58ZM303.77 179.33h6.69v1h-6.69z" class="cls-3"/>
      </g>
    </g>
  </g>
</svg>
